<svg width="303" height="112" viewBox="0 0 303 112" fill="none" xmlns="http://www.w3.org/2000/svg">
<path fill-rule="evenodd" clip-rule="evenodd" d="M2.47717 87.3119C2.37332 87.9177 2.34387 88.5219 2.39078 89.124C3.77908 106.952 71.5542 116.214 153.771 109.811C235.987 103.408 301.511 83.7659 300.123 65.9383C300.096 65.5923 300.044 65.2496 299.967 64.9102V32.4004L2.46744 54.4004C2.73383 63.4579 2.54776 80.7474 2.48563 86.5233C2.48245 86.8168 2.47961 87.0805 2.47717 87.3119Z" fill="#FBB023"/>
<mask id="mask0_627_1915" style="mask-type:alpha" maskUnits="userSpaceOnUse" x="2" y="32" width="299" height="80">
<path fill-rule="evenodd" clip-rule="evenodd" d="M2.47827 87.3053C2.37354 87.9132 2.34372 88.5196 2.39078 89.1239C3.77911 106.952 71.5542 116.213 153.771 109.811C235.987 103.408 301.511 83.7658 300.123 65.9381C300.096 65.5937 300.044 65.2525 299.968 64.9145V32.4004L2.46848 54.4004C2.73486 63.4579 2.5488 80.7474 2.48666 86.5233C2.48352 86.814 2.48071 87.0755 2.47827 87.3053Z" fill="#FBB023"/>
</mask>
<g mask="url(#mask0_627_1915)">
<line y1="-1" x2="172.767" y2="-1" transform="matrix(-0.00187911 0.999998 0.999975 0.00706684 147.988 -15.6328)" stroke="#E69804" stroke-width="2"/>
<line y1="-1" x2="172.767" y2="-1" transform="matrix(-0.00187911 0.999998 0.999975 0.00706684 235.82 -15.0117)" stroke="#E69804" stroke-width="2"/>
<line y1="-1" x2="172.767" y2="-1" transform="matrix(-0.00187911 0.999998 0.999975 0.00706684 60.1562 -16.2539)" stroke="#E69804" stroke-width="2"/>
<line y1="-1" x2="173.984" y2="-1" transform="matrix(-0.00187911 0.999998 0.999975 0.00706684 279.734 -14.7012)" stroke="#E69804" stroke-width="2"/>
<line y1="-1" x2="173.984" y2="-1" transform="matrix(-0.00187911 0.999998 0.999975 0.00706684 104.07 -15.9434)" stroke="#E69804" stroke-width="2"/>
<line y1="-1" x2="173.984" y2="-1" transform="matrix(-0.00187911 0.999998 0.999975 0.00706684 191.906 -15.3223)" stroke="#E69804" stroke-width="2"/>
<line y1="-1" x2="173.984" y2="-1" transform="matrix(-0.00187911 0.999998 0.999975 0.00706684 16.2383 -16.5645)" stroke="#E69804" stroke-width="2"/>
<line y1="-1" x2="172.767" y2="-1" transform="matrix(-0.00187911 0.999998 0.999975 0.00706684 298.559 -14.5684)" stroke="#E69804" stroke-width="2"/>
<line y1="-1" x2="172.767" y2="-1" transform="matrix(-0.00187911 0.999998 0.999975 0.00706684 122.895 -15.8105)" stroke="#E69804" stroke-width="2"/>
<line y1="-1" x2="172.767" y2="-1" transform="matrix(-0.00187911 0.999998 0.999975 0.00706684 210.727 -15.1914)" stroke="#E69804" stroke-width="2"/>
<line y1="-1" x2="172.767" y2="-1" transform="matrix(-0.00187911 0.999998 0.999975 0.00706684 35.0586 -16.4297)" stroke="#E69804" stroke-width="2"/>
<line y1="-1" x2="172.767" y2="-1" transform="matrix(-0.00187911 0.999998 0.999975 0.00706684 254.641 -14.8789)" stroke="#E69804" stroke-width="2"/>
<line y1="-1" x2="172.767" y2="-1" transform="matrix(-0.00187911 0.999998 0.999975 0.00706684 78.9766 -16.1191)" stroke="#E69804" stroke-width="2"/>
<line y1="-1" x2="172.767" y2="-1" transform="matrix(-0.00187911 0.999998 0.999975 0.00706684 166.809 -15.5)" stroke="#E69804" stroke-width="2"/>
<line y1="-1" x2="172.767" y2="-1" transform="matrix(-0.00187911 0.999998 0.999975 0.00706684 141.715 -15.6777)" stroke="#E69804" stroke-width="2"/>
<line y1="-1" x2="172.767" y2="-1" transform="matrix(-0.00187911 0.999998 0.999975 0.00706684 229.547 -15.0566)" stroke="#E69804" stroke-width="2"/>
<line y1="-1" x2="172.767" y2="-1" transform="matrix(-0.00187911 0.999998 0.999975 0.00706684 53.8789 -16.2988)" stroke="#E69804" stroke-width="2"/>
<line y1="-1" x2="173.984" y2="-1" transform="matrix(-0.00187911 0.999998 0.999975 0.00706684 273.461 -14.7461)" stroke="#E69804" stroke-width="2"/>
<line y1="-1" x2="173.984" y2="-1" transform="matrix(-0.00187911 0.999998 0.999975 0.00706684 97.7969 -15.9863)" stroke="#E69804" stroke-width="2"/>
<line y1="-1" x2="173.984" y2="-1" transform="matrix(-0.00187911 0.999998 0.999975 0.00706684 185.633 -15.3652)" stroke="#E69804" stroke-width="2"/>
<line y1="-1" x2="173.984" y2="-1" transform="matrix(-0.00187911 0.999998 0.999975 0.00706684 9.96484 -16.6094)" stroke="#E69804" stroke-width="2"/>
<line y1="-1" x2="172.767" y2="-1" transform="matrix(-0.00187911 0.999998 0.999975 0.00706684 135.441 -15.7207)" stroke="#E69804" stroke-width="2"/>
<line y1="-1" x2="172.767" y2="-1" transform="matrix(-0.00187911 0.999998 0.999975 0.00706684 223.273 -15.0996)" stroke="#E69804" stroke-width="2"/>
<line y1="-1" x2="172.767" y2="-1" transform="matrix(-0.00187911 0.999998 0.999975 0.00706684 47.6055 -16.3418)" stroke="#E69804" stroke-width="2"/>
<line y1="-1" x2="173.984" y2="-1" transform="matrix(-0.00187911 0.999998 0.999975 0.00706684 267.188 -14.791)" stroke="#E69804" stroke-width="2"/>
<line y1="-1" x2="173.984" y2="-1" transform="matrix(-0.00187911 0.999998 0.999975 0.00706684 91.5234 -16.0312)" stroke="#E69804" stroke-width="2"/>
<line y1="-1" x2="173.984" y2="-1" transform="matrix(-0.00187911 0.999998 0.999975 0.00706684 179.355 -15.4102)" stroke="#E69804" stroke-width="2"/>
<line y1="-1" x2="173.984" y2="-1" transform="matrix(-0.00187911 0.999998 0.999975 0.00706684 3.69141 -16.6523)" stroke="#E69804" stroke-width="2"/>
<line y1="-1" x2="172.767" y2="-1" transform="matrix(-0.00187911 0.999998 0.999975 0.00706684 292.285 -14.6133)" stroke="#E69804" stroke-width="2"/>
<line y1="-1" x2="172.767" y2="-1" transform="matrix(-0.00187911 0.999998 0.999975 0.00706684 116.617 -15.8535)" stroke="#E69804" stroke-width="2"/>
<line y1="-1" x2="172.767" y2="-1" transform="matrix(-0.00187911 0.999998 0.999975 0.00706684 204.453 -15.2344)" stroke="#E69804" stroke-width="2"/>
<line y1="-1" x2="172.767" y2="-1" transform="matrix(-0.00187911 0.999998 0.999975 0.00706684 28.7852 -16.4766)" stroke="#E69804" stroke-width="2"/>
<line y1="-1" x2="172.767" y2="-1" transform="matrix(-0.00187911 0.999998 0.999975 0.00706684 248.367 -14.9238)" stroke="#E69804" stroke-width="2"/>
<line y1="-1" x2="172.767" y2="-1" transform="matrix(-0.00187911 0.999998 0.999975 0.00706684 72.7031 -16.1641)" stroke="#E69804" stroke-width="2"/>
<line y1="-1" x2="172.767" y2="-1" transform="matrix(-0.00187911 0.999998 0.999975 0.00706684 160.535 -15.5449)" stroke="#E69804" stroke-width="2"/>
<line y1="-1" x2="172.767" y2="-1" transform="matrix(-0.00187911 0.999998 0.999975 0.00706684 129.168 -15.7656)" stroke="#E69804" stroke-width="2"/>
<line y1="-1" x2="172.767" y2="-1" transform="matrix(-0.00187911 0.999998 0.999975 0.00706684 217 -15.1445)" stroke="#E69804" stroke-width="2"/>
<line y1="-1" x2="172.767" y2="-1" transform="matrix(-0.00187911 0.999998 0.999975 0.00706684 41.332 -16.3848)" stroke="#E69804" stroke-width="2"/>
<line y1="-1" x2="172.767" y2="-1" transform="matrix(-0.00187911 0.999998 0.999975 0.00706684 260.914 -14.834)" stroke="#E69804" stroke-width="2"/>
<line y1="-1" x2="172.767" y2="-1" transform="matrix(-0.00187911 0.999998 0.999975 0.00706684 85.25 -16.0762)" stroke="#E69804" stroke-width="2"/>
<line y1="-1" x2="172.767" y2="-1" transform="matrix(-0.00187911 0.999998 0.999975 0.00706684 173.082 -15.4531)" stroke="#E69804" stroke-width="2"/>
<line y1="-1" x2="173.984" y2="-1" transform="matrix(-0.00187911 0.999998 0.999975 0.00706684 286.008 -14.6582)" stroke="#E69804" stroke-width="2"/>
<line y1="-1" x2="173.984" y2="-1" transform="matrix(-0.00187911 0.999998 0.999975 0.00706684 110.344 -15.8984)" stroke="#E69804" stroke-width="2"/>
<line y1="-1" x2="173.984" y2="-1" transform="matrix(-0.00187911 0.999998 0.999975 0.00706684 198.18 -15.2793)" stroke="#E69804" stroke-width="2"/>
<line y1="-1" x2="173.984" y2="-1" transform="matrix(-0.00187911 0.999998 0.999975 0.00706684 22.5117 -16.5195)" stroke="#E69804" stroke-width="2"/>
<line y1="-1" x2="172.767" y2="-1" transform="matrix(-0.00187911 0.999998 0.999975 0.00706684 242.094 -14.9668)" stroke="#E69804" stroke-width="2"/>
<line y1="-1" x2="172.767" y2="-1" transform="matrix(-0.00187911 0.999998 0.999975 0.00706684 66.4297 -16.2109)" stroke="#E69804" stroke-width="2"/>
<line y1="-1" x2="172.767" y2="-1" transform="matrix(-0.00187911 0.999998 0.999975 0.00706684 154.262 -15.5879)" stroke="#E69804" stroke-width="2"/>
</g>
<ellipse rx="149.317" ry="32.3776" transform="matrix(-0.997416 0.0718492 0.0718492 0.997416 151.259 43.0222)" fill="#FDD487"/>
<ellipse rx="121.465" ry="23.2883" transform="matrix(-0.997416 0.0718492 0.0718492 0.997416 151.256 43.0217)" fill="#FEE6B9"/>
<g opacity="0.5">
<mask id="mask1_627_1915" style="mask-type:alpha" maskUnits="userSpaceOnUse" x="2" y="8" width="299" height="70">
<ellipse rx="149.317" ry="32.3776" transform="matrix(-0.997416 0.0718492 0.0718492 0.997416 151.259 43.0222)" fill="#FDD487"/>
</mask>
<g mask="url(#mask1_627_1915)">
<path opacity="0.3" d="M79.5 80.5C28 34 111.5 34 177 7H106L4.5 26.5L-7 69C14.3333 78 100.653 99.5995 79.5 80.5Z" fill="#E69804"/>
</g>
</g>
</svg>
