<svg width="306" height="144" viewBox="0 0 306 144" fill="none" xmlns="http://www.w3.org/2000/svg">
<path fill-rule="evenodd" clip-rule="evenodd" d="M298.619 126.854C298.857 127.98 298.865 129.071 298.635 130.122C294.803 147.589 226.398 147.423 145.848 129.752C65.5728 112.142 3.52994 83.7918 6.90061 66.3104V34.5059L298.633 94.4208C298.367 103.476 298.552 120.672 298.615 126.425C298.616 126.576 298.618 126.719 298.619 126.854Z" fill="#FBB023"/>
<mask id="mask0_627_1914" style="mask-type:alpha" maskUnits="userSpaceOnUse" x="6" y="34" width="293" height="110">
<path fill-rule="evenodd" clip-rule="evenodd" d="M298.623 126.854C298.86 127.98 298.869 129.071 298.638 130.122C294.807 147.589 226.402 147.423 145.852 129.752C65.5767 112.142 3.53385 83.7918 6.90452 66.3104V34.5059L298.637 94.4208C298.37 103.476 298.556 120.672 298.619 126.425C298.62 126.576 298.622 126.719 298.623 126.854Z" fill="#FBB023"/>
</mask>
<g mask="url(#mask0_627_1914)">
<line y1="-1" x2="172.767" y2="-1" transform="matrix(0.00187911 0.999998 -0.999975 0.00706684 156.055 4.96289)" stroke="#E69804" stroke-width="2"/>
<line y1="-1" x2="172.767" y2="-1" transform="matrix(0.00187911 0.999998 -0.999975 0.00706684 68.2227 5.58398)" stroke="#E69804" stroke-width="2"/>
<line y1="-1" x2="172.767" y2="-1" transform="matrix(0.00187911 0.999998 -0.999975 0.00706684 243.887 4.3418)" stroke="#E69804" stroke-width="2"/>
<line y1="-1" x2="173.984" y2="-1" transform="matrix(0.00187911 0.999998 -0.999975 0.00706684 24.3086 5.89453)" stroke="#E69804" stroke-width="2"/>
<line y1="-1" x2="173.984" y2="-1" transform="matrix(0.00187911 0.999998 -0.999975 0.00706684 199.973 4.65234)" stroke="#E69804" stroke-width="2"/>
<line y1="-1" x2="173.984" y2="-1" transform="matrix(0.00187911 0.999998 -0.999975 0.00706684 112.137 5.27344)" stroke="#E69804" stroke-width="2"/>
<line y1="-1" x2="173.984" y2="-1" transform="matrix(0.00187911 0.999998 -0.999975 0.00706684 287.805 4.03125)" stroke="#E69804" stroke-width="2"/>
<line y1="-1" x2="172.767" y2="-1" transform="matrix(0.00187911 0.999998 -0.999975 0.00706684 5.48438 6.02734)" stroke="#E69804" stroke-width="2"/>
<line y1="-1" x2="172.767" y2="-1" transform="matrix(0.00187911 0.999998 -0.999975 0.00706684 181.148 4.78516)" stroke="#E69804" stroke-width="2"/>
<line y1="-1" x2="172.767" y2="-1" transform="matrix(0.00187911 0.999998 -0.999975 0.00706684 93.3164 5.4043)" stroke="#E69804" stroke-width="2"/>
<line y1="-1" x2="172.767" y2="-1" transform="matrix(0.00187911 0.999998 -0.999975 0.00706684 268.984 4.16602)" stroke="#E69804" stroke-width="2"/>
<line y1="-1" x2="172.767" y2="-1" transform="matrix(0.00187911 0.999998 -0.999975 0.00706684 49.4023 5.7168)" stroke="#E69804" stroke-width="2"/>
<line y1="-1" x2="172.767" y2="-1" transform="matrix(0.00187911 0.999998 -0.999975 0.00706684 225.066 4.47656)" stroke="#E69804" stroke-width="2"/>
<line y1="-1" x2="172.767" y2="-1" transform="matrix(0.00187911 0.999998 -0.999975 0.00706684 137.234 5.0957)" stroke="#E69804" stroke-width="2"/>
<line y1="-1" x2="172.767" y2="-1" transform="matrix(0.00187911 0.999998 -0.999975 0.00706684 162.328 4.91797)" stroke="#E69804" stroke-width="2"/>
<line y1="-1" x2="172.767" y2="-1" transform="matrix(0.00187911 0.999998 -0.999975 0.00706684 74.4961 5.53906)" stroke="#E69804" stroke-width="2"/>
<line y1="-1" x2="172.767" y2="-1" transform="matrix(0.00187911 0.999998 -0.999975 0.00706684 250.164 4.29688)" stroke="#E69804" stroke-width="2"/>
<line y1="-1" x2="173.984" y2="-1" transform="matrix(0.00187911 0.999998 -0.999975 0.00706684 30.582 5.84961)" stroke="#E69804" stroke-width="2"/>
<line y1="-1" x2="173.984" y2="-1" transform="matrix(0.00187911 0.999998 -0.999975 0.00706684 206.246 4.60938)" stroke="#E69804" stroke-width="2"/>
<line y1="-1" x2="173.984" y2="-1" transform="matrix(0.00187911 0.999998 -0.999975 0.00706684 118.41 5.23047)" stroke="#E69804" stroke-width="2"/>
<line y1="-1" x2="173.984" y2="-1" transform="matrix(0.00187911 0.999998 -0.999975 0.00706684 294.078 3.98633)" stroke="#E69804" stroke-width="2"/>
<line y1="-1" x2="172.767" y2="-1" transform="matrix(0.00187911 0.999998 -0.999975 0.00706684 168.602 4.875)" stroke="#E69804" stroke-width="2"/>
<line y1="-1" x2="172.767" y2="-1" transform="matrix(0.00187911 0.999998 -0.999975 0.00706684 80.7695 5.49609)" stroke="#E69804" stroke-width="2"/>
<line y1="-1" x2="172.767" y2="-1" transform="matrix(0.00187911 0.999998 -0.999975 0.00706684 256.438 4.25391)" stroke="#E69804" stroke-width="2"/>
<line y1="-1" x2="173.984" y2="-1" transform="matrix(0.00187911 0.999998 -0.999975 0.00706684 36.8555 5.80469)" stroke="#E69804" stroke-width="2"/>
<line y1="-1" x2="173.984" y2="-1" transform="matrix(0.00187911 0.999998 -0.999975 0.00706684 212.52 4.56445)" stroke="#E69804" stroke-width="2"/>
<line y1="-1" x2="173.984" y2="-1" transform="matrix(0.00187911 0.999998 -0.999975 0.00706684 124.688 5.18555)" stroke="#E69804" stroke-width="2"/>
<line y1="-1" x2="172.767" y2="-1" transform="matrix(0.00187911 0.999998 -0.999975 0.00706684 11.7578 5.98242)" stroke="#E69804" stroke-width="2"/>
<line y1="-1" x2="172.767" y2="-1" transform="matrix(0.00187911 0.999998 -0.999975 0.00706684 187.426 4.74219)" stroke="#E69804" stroke-width="2"/>
<line y1="-1" x2="172.767" y2="-1" transform="matrix(0.00187911 0.999998 -0.999975 0.00706684 99.5898 5.36133)" stroke="#E69804" stroke-width="2"/>
<line y1="-1" x2="172.767" y2="-1" transform="matrix(0.00187911 0.999998 -0.999975 0.00706684 275.258 4.11914)" stroke="#E69804" stroke-width="2"/>
<line y1="-1" x2="172.767" y2="-1" transform="matrix(0.00187911 0.999998 -0.999975 0.00706684 55.6758 5.67188)" stroke="#E69804" stroke-width="2"/>
<line y1="-1" x2="172.767" y2="-1" transform="matrix(0.00187911 0.999998 -0.999975 0.00706684 231.34 4.43164)" stroke="#E69804" stroke-width="2"/>
<line y1="-1" x2="172.767" y2="-1" transform="matrix(0.00187911 0.999998 -0.999975 0.00706684 143.508 5.05078)" stroke="#E69804" stroke-width="2"/>
<line y1="-1" x2="172.767" y2="-1" transform="matrix(0.00187911 0.999998 -0.999975 0.00706684 174.875 4.83008)" stroke="#E69804" stroke-width="2"/>
<line y1="-1" x2="172.767" y2="-1" transform="matrix(0.00187911 0.999998 -0.999975 0.00706684 87.043 5.45117)" stroke="#E69804" stroke-width="2"/>
<line y1="-1" x2="172.767" y2="-1" transform="matrix(0.00187911 0.999998 -0.999975 0.00706684 262.711 4.21094)" stroke="#E69804" stroke-width="2"/>
<line y1="-1" x2="172.767" y2="-1" transform="matrix(0.00187911 0.999998 -0.999975 0.00706684 43.1289 5.76172)" stroke="#E69804" stroke-width="2"/>
<line y1="-1" x2="172.767" y2="-1" transform="matrix(0.00187911 0.999998 -0.999975 0.00706684 218.793 4.51953)" stroke="#E69804" stroke-width="2"/>
<line y1="-1" x2="172.767" y2="-1" transform="matrix(0.00187911 0.999998 -0.999975 0.00706684 130.961 5.14258)" stroke="#E69804" stroke-width="2"/>
<line y1="-1" x2="173.984" y2="-1" transform="matrix(0.00187911 0.999998 -0.999975 0.00706684 18.0352 5.9375)" stroke="#E69804" stroke-width="2"/>
<line y1="-1" x2="173.984" y2="-1" transform="matrix(0.00187911 0.999998 -0.999975 0.00706684 193.699 4.69727)" stroke="#E69804" stroke-width="2"/>
<line y1="-1" x2="173.984" y2="-1" transform="matrix(0.00187911 0.999998 -0.999975 0.00706684 105.863 5.31641)" stroke="#E69804" stroke-width="2"/>
<line y1="-1" x2="173.984" y2="-1" transform="matrix(0.00187911 0.999998 -0.999975 0.00706684 281.531 4.07617)" stroke="#E69804" stroke-width="2"/>
<line y1="-1" x2="172.767" y2="-1" transform="matrix(0.00187911 0.999998 -0.999975 0.00706684 61.9492 5.62891)" stroke="#E69804" stroke-width="2"/>
<line y1="-1" x2="172.767" y2="-1" transform="matrix(0.00187911 0.999998 -0.999975 0.00706684 237.613 4.38477)" stroke="#E69804" stroke-width="2"/>
<line y1="-1" x2="172.767" y2="-1" transform="matrix(0.00187911 0.999998 -0.999975 0.00706684 149.781 5.00781)" stroke="#E69804" stroke-width="2"/>
</g>
<ellipse cx="152.786" cy="63.621" rx="149.317" ry="32.3776" transform="rotate(12.3732 152.786 63.621)" fill="#FDD487"/>
<ellipse cx="152.787" cy="63.6205" rx="121.465" ry="23.2883" transform="rotate(12.3732 152.787 63.6205)" fill="#FEE6B9"/>
<mask id="mask1_627_1914" style="mask-type:alpha" maskUnits="userSpaceOnUse" x="6" y="18" width="293" height="91">
<ellipse cx="152.786" cy="63.621" rx="149.317" ry="32.3776" transform="rotate(12.3732 152.786 63.621)" fill="#FDD487"/>
</mask>
<g mask="url(#mask1_627_1914)">
<path opacity="0.3" d="M22.5 69.9994C29.3 28.7994 136.333 30.166 189 35.9994L68 -20L-5 23.5C1.33333 56.1665 15.7 111.199 22.5 69.9994Z" fill="#E69804"/>
</g>
</svg>
