<svg width="107" height="273" viewBox="0 0 107 273" fill="none" xmlns="http://www.w3.org/2000/svg">
<path fill-rule="evenodd" clip-rule="evenodd" d="M57.0405 175.395L57.6173 169.136C54.8956 168.598 47.0625 166.745 44.7813 166.206C44.4299 166.123 44.2103 166.071 44.1613 166.059C44.158 166.059 44.1541 166.063 44.1495 166.071C29.4749 162.295 15.2732 178.37 12.1013 202.732C8.84887 227.711 18.4245 251.943 33.4891 256.855C34.5041 257.186 35.5181 257.421 36.5277 257.564L49.2006 260.462L49.7893 254.074C58.0825 248.299 64.6257 236.106 66.6548 220.521C68.9417 202.957 64.8865 185.763 57.0405 175.395Z" fill="#FBB023"/>
<mask id="mask0_658_13661" style="mask-type:alpha" maskUnits="userSpaceOnUse" x="11" y="165" width="57" height="96">
<path fill-rule="evenodd" clip-rule="evenodd" d="M57.0406 175.395L57.6174 169.136C54.8958 168.597 47.0627 166.745 44.7814 166.206C44.4301 166.122 44.2104 166.07 44.1614 166.059C44.1582 166.059 44.1542 166.063 44.1496 166.071C29.4749 162.295 15.2732 178.37 12.1013 202.732C8.84887 227.711 18.4245 251.943 33.4891 256.855C34.5045 257.187 35.519 257.421 36.529 257.564L49.2008 260.462L49.7895 254.074C58.0826 248.299 64.6257 236.106 66.6548 220.521C68.9417 202.958 64.8866 185.763 57.0406 175.395Z" fill="#FBB023"/>
</mask>
<g mask="url(#mask0_658_13661)">
<line y1="-1" x2="51.8427" y2="-1" transform="matrix(-0.974418 -0.224743 -0.229811 0.973235 48.7969 226.559)" stroke="#E69804" stroke-width="2"/>
<line y1="-1" x2="52.2078" y2="-1" transform="matrix(-0.974418 -0.224743 -0.229811 0.973235 45.7812 259.357)" stroke="#E69804" stroke-width="2"/>
<line y1="-1" x2="52.2078" y2="-1" transform="matrix(-0.974418 -0.224743 -0.229812 0.973235 51.8203 193.924)" stroke="#E69804" stroke-width="2"/>
<line y1="-1" x2="51.8427" y2="-1" transform="matrix(-0.974418 -0.224743 -0.229811 0.973235 44.4805 273.391)" stroke="#E69804" stroke-width="2"/>
<line y1="-1" x2="51.8427" y2="-1" transform="matrix(-0.974418 -0.224743 -0.229811 0.973235 50.5273 207.957)" stroke="#E69804" stroke-width="2"/>
<line y1="-1" x2="51.8427" y2="-1" transform="matrix(-0.974418 -0.224743 -0.229811 0.973235 47.5039 240.51)" stroke="#E69804" stroke-width="2"/>
<line y1="-1" x2="51.8427" y2="-1" transform="matrix(-0.974418 -0.224743 -0.229812 0.973235 53.5547 175.076)" stroke="#E69804" stroke-width="2"/>
<line y1="-1" x2="51.8427" y2="-1" transform="matrix(-0.974418 -0.224743 -0.229811 0.973235 49.2344 221.908)" stroke="#E69804" stroke-width="2"/>
<line y1="-1" x2="52.2078" y2="-1" transform="matrix(-0.974418 -0.224743 -0.229811 0.973235 46.207 254.625)" stroke="#E69804" stroke-width="2"/>
<line y1="-1" x2="52.2078" y2="-1" transform="matrix(-0.974418 -0.224743 -0.229812 0.973235 52.2539 189.191)" stroke="#E69804" stroke-width="2"/>
<line y1="-1" x2="51.8427" y2="-1" transform="matrix(-0.974418 -0.224743 -0.229811 0.973235 49.6641 217.258)" stroke="#E69804" stroke-width="2"/>
<line y1="-1" x2="52.2078" y2="-1" transform="matrix(-0.974418 -0.224743 -0.229811 0.973235 46.6445 249.893)" stroke="#E69804" stroke-width="2"/>
<line y1="-1" x2="52.2078" y2="-1" transform="matrix(-0.974418 -0.224743 -0.229812 0.973235 52.6875 184.459)" stroke="#E69804" stroke-width="2"/>
<line y1="-1" x2="51.8427" y2="-1" transform="matrix(-0.974418 -0.224743 -0.229811 0.973235 44.9141 268.74)" stroke="#E69804" stroke-width="2"/>
<line y1="-1" x2="51.8427" y2="-1" transform="matrix(-0.974418 -0.224743 -0.229811 0.973235 50.9609 203.307)" stroke="#E69804" stroke-width="2"/>
<line y1="-1" x2="51.8427" y2="-1" transform="matrix(-0.974418 -0.224743 -0.229811 0.973235 47.9375 235.859)" stroke="#E69804" stroke-width="2"/>
<line y1="-1" x2="51.8427" y2="-1" transform="matrix(-0.974418 -0.224743 -0.229811 0.973235 53.9844 170.426)" stroke="#E69804" stroke-width="2"/>
<line y1="-1" x2="51.8427" y2="-1" transform="matrix(-0.974418 -0.224743 -0.229811 0.973235 50.0938 212.607)" stroke="#E69804" stroke-width="2"/>
<line y1="-1" x2="51.8427" y2="-1" transform="matrix(-0.974418 -0.224743 -0.229811 0.973235 47.0703 245.16)" stroke="#E69804" stroke-width="2"/>
<line y1="-1" x2="51.8427" y2="-1" transform="matrix(-0.974418 -0.224743 -0.229812 0.973235 53.1211 179.727)" stroke="#E69804" stroke-width="2"/>
<line y1="-1" x2="52.2078" y2="-1" transform="matrix(-0.974418 -0.224743 -0.229811 0.973235 45.3438 264.09)" stroke="#E69804" stroke-width="2"/>
<line y1="-1" x2="52.2078" y2="-1" transform="matrix(-0.974418 -0.224743 -0.229811 0.973235 51.3945 198.656)" stroke="#E69804" stroke-width="2"/>
<line y1="-1" x2="51.8427" y2="-1" transform="matrix(-0.974418 -0.224743 -0.229811 0.973235 48.3672 231.209)" stroke="#E69804" stroke-width="2"/>
<line y1="-1" x2="51.8427" y2="-1" transform="matrix(-0.974418 -0.224743 -0.229812 0.973235 54.4141 165.775)" stroke="#E69804" stroke-width="2"/>
</g>
<ellipse rx="45.6194" ry="28.6976" transform="matrix(0.129289 -0.99152 -0.950805 -0.309823 53.081 214.757)" fill="#FDD487"/>
<ellipse rx="37.1097" ry="20.642" transform="matrix(0.129284 -0.991521 -0.950806 -0.309819 53.0813 214.757)" fill="#FEE6B9"/>
<mask id="mask1_658_13661" style="mask-type:alpha" maskUnits="userSpaceOnUse" x="25" y="168" width="56" height="93">
<ellipse rx="45.6108" ry="28.6904" transform="matrix(0.129288 -0.991607 -0.950677 -0.310183 53.0904 214.754)" fill="#FDD487"/>
</mask>
<g mask="url(#mask1_658_13661)">
<path opacity="0.2" d="M47.7977 259.831C28.5002 217.5 42.7142 180.402 74.0406 159.692L52.0784 161.859L5.29356 174.618L-3.17973 210.931C5.62215 219.586 55.7241 277.218 47.7977 259.831Z" fill="#E69804"/>
</g>
<path d="M28.1852 149L20 33.0084L33 20V144.122L28.1852 149Z" fill="#C2C2C2"/>
<path d="M48.7037 135.358L54 14.5677L43 0V139L48.7037 135.358Z" fill="#C2C2C2"/>
<path d="M64.5 147L69 60.2608L59 51V139.364L64.5 147Z" fill="#C2C2C2"/>
</svg>
