<?xml version="1.0" encoding="UTF-8"?>
<svg width="1200pt" height="1200pt" version="1.1" viewBox="0 0 1200 1200" xmlns="http://www.w3.org/2000/svg">
 <path fill="#06B6D4" d="m1185.5 401.48c-12.574-5.8008-27.523-0.39844-33.398 12.148-0.35156 0.77344-35.875 75.25-118 90.125-1.1016 0.22656-1.9492 0.875-2.9766 1.1992-53.375-178.4-260.98-311.97-508.78-311.97-21.875 0-43.102 1.6484-59.75 3.1992-68.426-82.949-173.95-95.398-231.12-95.398-30.977 0-51.375 3.4492-52.227 3.6016-2.3242 0.37109-4.2227 2.0195-4.9219 4.2695-0.72656 2.25-0.10156 4.7031 1.5508 6.3516 39 38.977 79.773 119.5 77.074 204.18-2.875 88.324-72.551 157.55-158.57 157.55-20.125 0-40.074-3.8984-59.273-11.648-3.1484-1.1992-6.7734 0.22656-8.1016 3.3516-17.902 41.195-26.977 83.82-26.977 126.72 0 27.949 4.0508 56.602 12 85.227 0.67578 2.3516 2.625 4.1016 5.0742 4.5 112.9 17.977 194.88 112.25 194.88 224.23 0 0.57422-0.10156 1.125-0.19922 1.6484-0.14844 1.0742-0.27344 2.1992-0.27344 3.3242 0 0.77344 0.14844 1.5742 0.47656 2.3008v176.6c0 3.4766 2.7734 6.25 6.25 6.25h122.8c3.4766 0 6.2734-2.7734 6.2734-6.25v-120.12c121.48 33.977 247.43 31.551 362.18-2.5v122.6c0 3.4766 2.8242 6.25 6.3008 6.25h122.77c3.4766 0 6.2734-2.7734 6.2734-6.25v-181.93c127.2-76.898 200.02-191.85 200.02-315.88 0-14.102-1-28.051-2.8516-41.801 0.375-0.050781 0.69922-0.023437 1.0742-0.10156 107.48-19.523 152.7-114.38 154.6-118.4 5.875-12.602 0.40234-27.551-12.172-33.375zm-775.03 77.023c-29.977 0-54.199-24.199-54.199-54.25 0-30 24.227-54.301 54.199-54.301 30.125 0 54.199 24.301 54.199 54.301 0 30.051-24.074 54.25-54.199 54.25z"/>
</svg>
