<svg width="868" height="657" viewBox="0 0 868 657" fill="none" xmlns="http://www.w3.org/2000/svg">
<path d="M13.5337 426.531C13.5337 426.531 29.6819 79.5554 14.5858 28.3084C91.6629 25.6856 237.911 54.7288 453.395 47.3964C668.879 40.064 747.797 114.83 851.856 157.11C851.856 157.11 844.606 455.863 821.032 629.23C735.295 609.639 597.626 516.653 421.351 470.265C315.671 442.455 115.466 433.87 13.5337 426.531Z" fill="#9BDFE9"/>
<path opacity="0.2" fill-rule="evenodd" clip-rule="evenodd" d="M14.5858 28.3084C29.6819 79.5554 13.5337 426.531 13.5337 426.531C30.4506 427.749 50.0743 429.001 71.5234 430.37C179.315 437.249 333.21 447.07 421.351 470.265C521.92 496.73 609.922 538.363 682.885 572.881C737.809 598.865 784.21 620.816 821.032 629.23C844.606 455.863 851.856 157.11 851.856 157.11C827.907 147.379 805.289 135.928 782.032 124.152C704.237 84.7637 619.285 41.7515 453.395 47.3964C318.555 51.9847 210.826 42.3295 130.191 35.1026C81.9656 30.7804 43.4316 27.3268 14.5858 28.3084ZM57.6443 72.8698C71.0865 115.354 55.7673 403.277 55.7673 403.277C70.9623 404.248 88.5888 405.241 107.855 406.326C204.678 411.781 342.912 419.57 422.042 438.608C512.33 460.331 591.293 494.668 656.76 523.136C706.042 544.567 747.677 562.671 780.738 569.566C802.322 425.668 809.534 177.777 809.534 177.777C788.042 169.759 767.749 160.311 746.883 150.595C677.085 118.097 600.866 82.6086 451.819 87.6803C330.67 91.8027 233.911 84.0439 161.487 78.2365C118.172 74.7632 83.5613 71.9879 57.6443 72.8698Z" fill="#2BBCD2"/>
<g opacity="0.2">
<mask id="mask0_625_649" style="mask-type:alpha" maskUnits="userSpaceOnUse" x="13" y="28" width="839" height="602">
<path d="M13.5337 426.531C13.5337 426.531 29.6819 79.5554 14.5858 28.3084C91.6629 25.6856 237.911 54.7288 453.395 47.3964C668.879 40.064 747.797 114.83 851.856 157.11C851.856 157.11 844.606 455.863 821.032 629.23C735.295 609.639 597.626 516.653 421.351 470.265C315.671 442.455 115.466 433.87 13.5337 426.531Z" fill="#9BDFE9"/>
</mask>
<g mask="url(#mask0_625_649)">
<path d="M341.927 270.817L21.8526 171.144L-1.26982 432.582L274.381 461.724L439.333 501.638L687.314 599.761L823.477 631.649L834.398 526.216L661.795 408.518L417.202 365.812L341.927 270.817Z" fill="#208D9E"/>
<path opacity="0.6" d="M131.033 159.925L84.1253 -57.1051L0.564998 -42.7551L-6.56355 438.766L546.666 539.01L495.646 421.677L345.174 366.262L251.308 195.355L131.033 159.925Z" fill="#2BBCD2"/>
<path opacity="0.5" d="M271.653 322.737L59.1145 1.77925L-0.27647 -8.70705L-9.45488 471.383L749.095 621.673L567.07 344.703L271.653 322.737Z" fill="#E1F6F9"/>
<g style="mix-blend-mode:darken" opacity="0.4">
<path d="M351.089 201.906L343.609 -17.9082L443.661 11.3128L438.831 266.018L351.089 201.906Z" fill="#208D9E"/>
</g>
<g style="mix-blend-mode:darken" opacity="0.4">
<path d="M284.923 109.936L280.102 -31.7559L327.789 -12.3482L326.966 151.757L284.923 109.936Z" fill="#208D9E"/>
</g>
<g style="mix-blend-mode:lighten" opacity="0.5">
<path d="M649.4 301.352L647.254 664.865L590.08 610.607L609.97 257.873L649.4 301.352Z" fill="#E1F6F9"/>
</g>
<g style="mix-blend-mode:lighten" opacity="0.5">
<path d="M712.269 355.526L710.672 719.051L647.953 664.672L669.002 311.963L712.269 355.526Z" fill="#E1F6F9"/>
</g>
</g>
</g>
<g opacity="0.7">
<path fill-rule="evenodd" clip-rule="evenodd" d="M777.834 260.528L785.932 263.254C780.646 279.443 762.915 307.262 734.278 289.025C723.251 282.003 720.435 265.019 723.319 247.179L715.803 245.99L720.379 236.481L725.404 237.557C725.834 235.97 726.306 234.39 726.818 232.823L715.292 231L719.868 221.491L730.303 223.725C738.89 204.343 753.576 189.196 770.506 192.25C789.819 195.734 794.135 224.953 794.135 224.953L781.744 228.376C776.357 214.015 763.752 197.414 751.554 228.276L757.558 229.562L754.701 237.231L748.741 236.289C748.162 238.134 747.584 240.097 747.01 242.184L758.069 244.552L755.212 252.221L744.884 250.588C733.555 299.989 761.851 278.145 777.834 260.528Z" fill="#208D9E"/>
<path fill-rule="evenodd" clip-rule="evenodd" d="M688.195 153.496C660.853 144.169 639.966 160.394 631.207 206.66C622.447 252.925 659.514 257.513 679.142 254.024C697.633 247.604 710.359 228.909 711.049 196.815C711.474 177.022 706.932 159.888 688.195 153.496ZM660.748 237.558C678.245 243.563 691.609 233.126 697.209 203.358C702.808 173.59 679.088 170.634 666.528 172.876C654.697 177.005 646.555 189.033 646.118 209.683C645.848 222.418 648.757 233.443 660.748 237.558Z" fill="#208D9E"/>
<path d="M631.207 206.66L631.698 206.753L631.207 206.66ZM688.195 153.496L688.033 153.97L688.195 153.496ZM679.142 254.024L679.23 254.516L679.269 254.509L679.306 254.496L679.142 254.024ZM711.049 196.815L711.549 196.826L711.049 196.815ZM697.209 203.358L696.717 203.266L697.209 203.358ZM660.748 237.558L660.91 237.086L660.748 237.558ZM666.528 172.876L666.44 172.384L666.401 172.391L666.364 172.404L666.528 172.876ZM646.118 209.683L646.618 209.693L646.118 209.683ZM631.698 206.753C636.07 183.662 643.452 168.169 653.065 159.604C662.641 151.072 674.5 149.353 688.033 153.97L688.356 153.023C674.548 148.313 662.293 150.042 652.4 158.857C642.544 167.639 635.103 183.391 630.715 206.567L631.698 206.753ZM679.055 253.532C669.3 255.266 655.268 254.978 644.79 248.573C639.564 245.379 635.217 240.663 632.71 233.895C630.2 227.121 629.52 218.256 631.698 206.753L630.715 206.567C628.514 218.195 629.182 227.254 631.772 234.243C634.364 241.239 638.869 246.126 644.268 249.426C655.04 256.01 669.356 256.272 679.23 254.516L679.055 253.532ZM710.549 196.804C709.862 228.774 697.202 247.225 678.978 253.552L679.306 254.496C698.064 247.984 710.857 229.044 711.549 196.826L710.549 196.804ZM688.033 153.97C697.266 157.119 702.982 162.901 706.352 170.337C709.732 177.795 710.761 186.94 710.549 196.804L711.549 196.826C711.762 186.898 710.733 177.58 707.263 169.924C703.784 162.247 697.86 156.265 688.356 153.023L688.033 153.97ZM696.717 203.266C693.925 218.108 689.213 228.029 683.106 233.501C677.037 238.938 669.52 240.04 660.91 237.086L660.585 238.031C669.472 241.081 677.386 239.968 683.773 234.245C690.122 228.557 694.892 218.377 697.7 203.451L696.717 203.266ZM666.616 173.369C672.836 172.258 681.764 172.45 688.417 176.539C691.729 178.576 694.484 181.58 696.074 185.895C697.667 190.216 698.105 195.886 696.717 203.266L697.7 203.451C699.112 195.946 698.685 190.084 697.013 185.549C695.338 181.006 692.427 177.831 688.94 175.687C681.993 171.417 672.781 171.252 666.44 172.384L666.616 173.369ZM646.618 209.693C647.052 189.166 655.129 177.384 666.693 173.348L666.364 172.404C654.264 176.626 646.058 188.899 645.618 209.672L646.618 209.693ZM660.91 237.086C655.051 235.075 651.429 231.39 649.291 226.648C647.143 221.884 646.483 216.03 646.618 209.693L645.618 209.672C645.482 216.071 646.142 222.098 648.379 227.059C650.626 232.042 654.454 235.927 660.585 238.031L660.91 237.086Z" fill="#208D9E"/>
<path fill-rule="evenodd" clip-rule="evenodd" d="M546.395 119.275C561.142 120.704 627.265 139.685 627.265 139.685C625.304 146.84 617.258 163.355 608.325 180.568L614.896 181.975L612.04 189.644L604.221 188.408C592.04 211.51 579.679 233.507 579.679 233.507L561.762 230.553L584.512 185.292L572.63 183.413L577.206 173.904L588.97 176.423L598.891 156.686L546.864 133.067L546.395 119.275Z" fill="#208D9E"/>
</g>
<path opacity="0.5" d="M779.19 467.265L776.109 466.631L775.894 468.871L774.718 468.645L774.933 466.405L770.964 465.595L770.749 467.835L769.573 467.609L769.79 465.347L766.751 464.739L766.908 463.104L769.947 463.712L770.278 460.262L767.241 459.632L767.396 458.019L770.434 458.627L770.654 456.342L771.828 456.591L771.609 458.875L775.579 459.663L775.799 457.378L776.973 457.627L776.754 459.911L779.835 460.546L779.678 462.181L776.597 461.546L776.266 464.996L779.347 465.63L779.19 467.265ZM775.09 464.77L775.42 461.32L771.452 460.51L771.121 463.96L775.09 464.77ZM781.071 454.968L778.987 454.769C778.174 454.691 777.507 454.495 776.987 454.181C776.468 453.86 776.052 453.444 775.739 452.931C775.427 452.412 775.172 451.811 774.974 451.129L774.143 448.246C773.92 447.501 773.598 446.928 773.177 446.526C772.756 446.124 772.206 445.89 771.527 445.825C770.81 445.756 770.2 445.95 769.696 446.407C769.194 446.856 768.9 447.525 768.815 448.413C768.73 449.294 768.851 450.037 769.177 450.641C769.497 451.236 770.03 451.611 770.776 451.766L770.589 453.715C769.78 453.584 769.113 453.279 768.586 452.799C768.06 452.312 767.687 451.684 767.467 450.917C767.239 450.149 767.172 449.273 767.267 448.287C767.354 447.384 767.607 446.591 768.026 445.907C768.446 445.224 768.985 444.707 769.644 444.356C770.297 443.997 771.022 443.855 771.821 443.932C772.545 444.001 773.163 444.196 773.675 444.517C774.187 444.837 774.613 445.266 774.953 445.803C775.294 446.333 775.57 446.951 775.781 447.657L776.651 450.611C776.859 451.355 777.139 451.924 777.493 452.32C777.847 452.715 778.334 452.943 778.953 453.002L779.625 453.067L780.409 444.891L782.022 445.046L781.071 454.968ZM782.394 441.169L768.328 439.82L768.832 434.556C768.931 433.525 769.185 432.687 769.594 432.041C769.995 431.393 770.491 430.929 771.084 430.646C771.668 430.363 772.289 430.253 772.946 430.316C773.753 430.394 774.433 430.685 774.987 431.19C775.535 431.687 775.874 432.39 776.006 433.3C776.15 432.733 776.404 432.249 776.767 431.847C777.122 431.436 777.544 431.13 778.03 430.928C778.509 430.726 779.01 430.649 779.533 430.699C780.011 430.745 780.469 430.872 780.909 431.08C781.349 431.281 781.735 431.585 782.065 431.993C782.395 432.402 782.638 432.926 782.795 433.567C782.952 434.207 782.987 434.987 782.899 435.905L782.394 441.169ZM781.038 439.275L781.374 435.781C781.476 434.714 781.325 433.927 780.922 433.421C780.519 432.908 779.967 432.617 779.265 432.55C778.555 432.482 777.964 432.681 777.489 433.148C777.008 433.614 776.72 434.34 776.625 435.326L776.29 438.82L781.038 439.275ZM769.996 438.216L774.789 438.676L775.12 435.227C775.204 434.353 775.058 433.638 774.681 433.082C774.299 432.518 773.715 432.198 772.931 432.123C772.199 432.053 771.604 432.252 771.145 432.721C770.686 433.181 770.414 433.856 770.329 434.745L769.996 438.216ZM783.728 427.257L769.662 425.908L770.167 420.644C770.266 419.614 770.519 418.775 770.928 418.129C771.329 417.482 771.826 417.017 772.418 416.735C773.003 416.452 773.623 416.342 774.28 416.405C775.087 416.482 775.767 416.773 776.321 417.279C776.869 417.776 777.209 418.479 777.34 419.388C777.485 418.822 777.738 418.337 778.101 417.935C778.457 417.525 778.878 417.219 779.364 417.017C779.843 416.814 780.344 416.738 780.867 416.788C781.345 416.834 781.804 416.96 782.243 417.168C782.684 417.369 783.069 417.673 783.399 418.082C783.729 418.49 783.972 419.014 784.13 419.655C784.287 420.295 784.321 421.075 784.233 421.993L783.728 427.257ZM782.373 425.364L782.708 421.869C782.81 420.802 782.66 420.015 782.256 419.509C781.853 418.996 781.301 418.706 780.599 418.638C779.89 418.57 779.298 418.77 778.824 419.236C778.342 419.703 778.054 420.429 777.959 421.414L777.624 424.908L782.373 425.364ZM771.33 424.305L776.123 424.764L776.454 421.315C776.538 420.441 776.392 419.727 776.016 419.171C775.633 418.606 775.049 418.287 774.265 418.212C773.534 418.141 772.938 418.34 772.479 418.809C772.02 419.27 771.748 419.944 771.663 420.833L771.33 424.305ZM785.8 408.488C785.681 409.727 785.268 410.765 784.563 411.602C783.85 412.438 782.917 413.045 781.766 413.425C780.607 413.803 779.296 413.922 777.832 413.782C776.272 413.632 774.983 413.245 773.965 412.62C772.948 411.987 772.211 411.193 771.752 410.238C771.287 409.274 771.109 408.224 771.218 407.09C771.362 405.589 771.855 404.419 772.696 403.581C773.531 402.734 774.566 402.196 775.801 401.968L776.001 403.886C775.099 404.094 774.36 404.494 773.784 405.086C773.2 405.671 772.868 406.389 772.786 407.24C772.715 407.979 772.862 408.683 773.228 409.351C773.586 410.01 774.166 410.571 774.965 411.032C775.765 411.493 776.781 411.782 778.013 411.9C779.133 412.008 780.144 411.954 781.046 411.739C781.949 411.517 782.679 411.127 783.238 410.571C783.797 410.006 784.12 409.261 784.209 408.335C784.316 407.223 784.102 406.313 783.567 405.607C783.033 404.892 782.28 404.488 781.309 404.395L781.492 402.492C782.5 402.588 783.344 402.903 784.024 403.435C784.696 403.967 785.186 404.669 785.494 405.543C785.803 406.409 785.905 407.39 785.8 408.488ZM772.314 398.259L772.709 394.138C772.845 392.719 773.254 391.515 773.937 390.526C774.612 389.536 775.503 388.804 776.611 388.33C777.719 387.856 778.986 387.687 780.412 387.824C781.823 387.959 783.028 388.365 784.025 389.041C785.023 389.717 785.767 390.606 786.256 391.707C786.738 392.809 786.911 394.068 786.775 395.487L786.38 399.608L772.314 398.259ZM774.027 396.66L785.024 397.715L785.252 395.341C785.354 394.281 785.202 393.347 784.797 392.54C784.393 391.725 783.797 391.072 783.007 390.582C782.211 390.084 781.287 389.784 780.234 389.683C779.174 389.582 778.213 389.7 777.352 390.04C776.483 390.371 775.777 390.898 775.233 391.622C774.682 392.338 774.356 393.226 774.254 394.286L774.027 396.66ZM787.719 385.651L785.636 385.451C784.822 385.373 784.155 385.177 783.635 384.863C783.116 384.542 782.7 384.126 782.387 383.613C782.075 383.094 781.82 382.493 781.622 381.811L780.791 378.928C780.568 378.183 780.247 377.61 779.825 377.208C779.404 376.806 778.854 376.572 778.175 376.507C777.458 376.438 776.848 376.632 776.344 377.089C775.842 377.538 775.548 378.207 775.463 379.095C775.378 379.976 775.499 380.719 775.825 381.323C776.145 381.918 776.678 382.294 777.424 382.448L777.237 384.397C776.428 384.266 775.761 383.961 775.234 383.481C774.708 382.994 774.335 382.366 774.115 381.599C773.887 380.832 773.82 379.955 773.915 378.969C774.002 378.066 774.255 377.273 774.674 376.59C775.094 375.906 775.633 375.389 776.292 375.038C776.945 374.679 777.67 374.537 778.469 374.614C779.194 374.683 779.812 374.878 780.323 375.199C780.835 375.519 781.261 375.948 781.601 376.485C781.942 377.015 782.218 377.633 782.43 378.339L783.299 381.293C783.507 382.037 783.787 382.606 784.141 383.002C784.495 383.397 784.982 383.625 785.601 383.684L786.273 383.749L787.058 375.573L788.67 375.728L787.719 385.651Z" fill="#208D9E"/>
</svg>
